<?xml version="1.0" encoding="UTF-8"?>
<svg width="200px" height="86px" viewBox="0 0 200 86" version="1.1" xmlns="http://www.w3.org/2000/svg" xmlns:xlink="http://www.w3.org/1999/xlink">
    <!-- Generator: Sketch 3.8.3 (29802) - http://www.bohemiancoding.com/sketch -->
    <title>plinth</title>
    <desc>Created with Sketch.</desc>
    <defs>
        <circle id="path-1" cx="40" cy="40" r="40"></circle>
        <filter x="-50%" y="-50%" width="200%" height="200%" filterUnits="objectBoundingBox" id="filter-2">
            <feOffset dx="1" dy="1" in="SourceAlpha" result="shadowOffsetOuter1"></feOffset>
            <feGaussianBlur stdDeviation="1.5" in="shadowOffsetOuter1" result="shadowBlurOuter1"></feGaussianBlur>
            <feColorMatrix values="0 0 0 0 0   0 0 0 0 0   0 0 0 0 0  0 0 0 0.20519135 0" type="matrix" in="shadowBlurOuter1"></feColorMatrix>
        </filter>
        <polygon id="path-3" points="112.118854 35.5814025 112.118854 0 0 0 0 17.7907013 0 35.5814025"></polygon>
    </defs>
    <g id="Material-Design-Stickersheet" stroke="none" stroke-width="1" fill="none" fill-rule="evenodd">
        <g id="app" transform="translate(-1485.000000, -1928.000000)">
            <g id="plinth" transform="translate(1487.000000, 1930.000000)">
                <g id="Oval-97">
                    <use fill="black" fill-opacity="1" filter="url(#filter-2)" xlink:href="#path-1"></use>
                    <use fill="#FFFFFF" fill-rule="evenodd" xlink:href="#path-1"></use>
                </g>
                <g id="Page-1" transform="translate(9.000000, 13.000000)">
                    <path d="M21.8555,7.4933 C23.1665,7.4933 24.2285,8.5553 24.2285,9.8663 C24.2285,11.1763 23.1665,12.2393 21.8555,12.2393 C20.5445,12.2393 19.4825,11.1763 19.4825,9.8663 C19.4825,8.5553 20.5445,7.4933 21.8555,7.4933" id="Fill-2" fill="#589FD7"></path>
                    <path d="M7.868,43.2114 C9.179,43.2114 10.241,44.2734 10.241,45.5844 C10.241,46.8944 9.179,47.9574 7.868,47.9574 C6.557,47.9574 5.495,46.8944 5.495,45.5844 C5.495,44.2734 6.557,43.2114 7.868,43.2114" id="Fill-4" fill="#FDEC58"></path>
                    <path d="M9.5665,36.4674 C10.8775,36.4674 11.9395,37.5294 11.9395,38.8404 C11.9395,40.1504 10.8775,41.2134 9.5665,41.2134 C8.2555,41.2134 7.1935,40.1504 7.1935,38.8404 C7.1935,37.5294 8.2555,36.4674 9.5665,36.4674" id="Fill-6" fill="#589FD7"></path>
                    <path d="M16.2621,22.635 L16.2621,22.635 C17.1721,23.021 17.5971,24.073 17.2111,24.983 L13.2031,34.425 C12.8171,35.335 11.7651,35.76 10.8551,35.373 L10.8551,35.373 C9.9441,34.987 9.5201,33.935 9.9061,33.025 L13.9141,23.584 C14.3001,22.673 15.3521,22.249 16.2621,22.635" id="Fill-8" fill="#589FD7"></path>
                    <path d="M20.6983,12.2859 L20.6983,12.2859 C21.5493,12.6469 21.9463,13.6299 21.5853,14.4799 L18.7303,21.2059 C18.3683,22.0569 17.3863,22.4539 16.5353,22.0929 C15.6843,21.7319 15.2883,20.7489 15.6493,19.8989 L18.5043,13.1729 C18.8653,12.3219 19.8473,11.9249 20.6983,12.2859" id="Fill-10" fill="#589FD7"></path>
                    <path d="M2.3729,46.2088 C3.6839,46.2088 4.7459,47.2708 4.7459,48.5818 C4.7459,49.8918 3.6839,50.9548 2.3729,50.9548 C1.0619,50.9548 -0.0001,49.8918 -0.0001,48.5818 C-0.0001,47.2708 1.0619,46.2088 2.3729,46.2088" id="Fill-12" fill="#FDEC58"></path>
                    <path d="M45.8341,12.4889 C47.1451,12.4889 48.2071,13.5509 48.2071,14.8619 C48.2071,16.1719 47.1451,17.2349 45.8341,17.2349 C44.5231,17.2349 43.4611,16.1719 43.4611,14.8619 C43.4611,13.5509 44.5231,12.4889 45.8341,12.4889" id="Fill-14" fill="#EE5451"></path>
                    <path d="M36.3426,8.2926 C37.6536,8.2926 38.7156,9.3546 38.7156,10.6656 C38.7156,11.9756 37.6536,13.0386 36.3426,13.0386 C35.0316,13.0386 33.9696,11.9756 33.9696,10.6656 C33.9696,9.3546 35.0316,8.2926 36.3426,8.2926" id="Fill-16" fill="#26A69A"></path>
                    <path d="M50.6798,14.6369 C51.9908,14.6369 53.0528,15.6989 53.0528,17.0099 C53.0528,18.3199 51.9908,19.3829 50.6798,19.3829 C49.3688,19.3829 48.3068,18.3199 48.3068,17.0099 C48.3068,15.6989 49.3688,14.6369 50.6798,14.6369" id="Fill-18" fill="#EE5451"></path>
                    <path d="M18.6084,0 C19.9194,0 20.9814,1.062 20.9814,2.373 C20.9814,3.683 19.9194,4.746 18.6084,4.746 C17.2974,4.746 16.2354,3.683 16.2354,2.373 C16.2354,1.062 17.2974,0 18.6084,0" id="Fill-20" fill="#26A69A"></path>
                    <path d="M41.0883,10.2408 C42.3993,10.2408 43.4613,11.3028 43.4613,12.6138 C43.4613,13.9238 42.3993,14.9868 41.0883,14.9868 C39.7773,14.9868 38.7153,13.9238 38.7153,12.6138 C38.7153,11.3028 39.7773,10.2408 41.0883,10.2408" id="Fill-22" fill="#26A69A"></path>
                    <path d="M20.9915,3.8902 L21.4055,3.0022 C21.7105,2.3472 22.4895,2.0642 23.1445,2.3692 L33.4825,7.1902 C34.1375,7.4952 34.4205,8.2742 34.1155,8.9292 L33.7015,9.8172 C33.3965,10.4722 32.6175,10.7552 31.9625,10.4502 L21.6245,5.6292 C20.9695,5.3242 20.6865,4.5452 20.9915,3.8902" id="Fill-24" fill="#26A69A"></path>
                    <path d="M13.5129,40.4639 C14.8239,40.4639 15.8859,41.5259 15.8859,42.8369 C15.8859,44.1469 14.8239,45.2099 13.5129,45.2099 C12.2019,45.2099 11.1399,44.1469 11.1399,42.8369 C11.1399,41.5259 12.2019,40.4639 13.5129,40.4639" id="Fill-26" fill="#FDEC58"></path>
                    <path d="M36.724,28.639 C37.362,28.3 38.154,28.542 38.493,29.18 L39,30.134 C39.339,30.772 39.1,31.562 38.456,31.905 L34.977,33.755 L23.87,39.66 C23.233,39.999 22.442,39.756 22.102,39.118 L21.596,38.165 C21.256,37.527 21.496,36.736 22.136,36.396 L36.724,28.639 Z" id="Fill-28" fill="#EE5451"></path>
                    <path d="M61.4878,16.8748 L61.9948,17.8278 C62.3338,18.4658 62.0918,19.2588 61.4538,19.5978 L41.8558,30.0178 C41.2178,30.3568 40.4258,30.1148 40.0868,29.4768 L39.5798,28.5238 C39.2408,27.8858 39.4828,27.0928 40.1208,26.7538 L59.7178,16.3338 C60.3558,15.9948 61.1488,16.2368 61.4878,16.8748" id="Fill-30" fill="#775BA7"></path>
                    <path d="M18.6084,37.7163 C19.9194,37.7163 20.9814,38.7783 20.9814,40.0893 C20.9814,41.3993 19.9194,42.4623 18.6084,42.4623 C17.2974,42.4623 16.2354,41.3993 16.2354,40.0893 C16.2354,38.7783 17.2974,37.7163 18.6084,37.7163" id="Fill-32" fill="#FDEC58"></path>
                    <path d="M64.8172,13.2382 C66.1282,13.2382 67.1902,14.3002 67.1902,15.6112 C67.1902,16.9212 66.1282,17.9842 64.8172,17.9842 C63.5062,17.9842 62.4442,16.9212 62.4442,15.6112 C62.4442,14.3002 63.5062,13.2382 64.8172,13.2382" id="Fill-34" fill="#775BA7"></path>
                </g>
                <g id="Page-1" transform="translate(87.000000, 21.000000)">
                    <mask id="mask-4" fill="white">
                        <use xlink:href="#path-3"></use>
                    </mask>
                    <g id="Clip-1"></g>
                    <text id="plinth" mask="url(#mask-4)" font-family="REZ" font-size="34.4924157" font-weight="normal" fill="#4A4A4A">
                        <tspan x="0" y="23.57416">plinth</tspan>
                    </text>
                    <text id="2017" mask="url(#mask-4)" font-family="CaviarDreams, Caviar Dreams" font-size="16.160236" font-weight="normal" fill="#4A4A4A">
                        <tspan x="72.1283809" y="23.101246">2017</tspan>
                    </text>
                    <text id="Techno---Management-Literary-Fest" mask="url(#mask-4)" font-family="CaviarDreams, Caviar Dreams" font-size="6.49889888" font-weight="normal" letter-spacing="-0.21137964" fill="#4A4A4A">
                        <tspan x="4.98380787" y="30.4089887">T</tspan>
                        <tspan x="7.68233558" y="30.4089887">echno - Management Litera</tspan>
                        <tspan x="90.9621706" y="30.4089887" letter-spacing="0.29551084">r</tspan>
                        <tspan x="93.5202375" y="30.4089887">y </tspan>
                        <tspan x="98.9560841" y="30.4089887" letter-spacing="-0.1156804">F</tspan>
                        <tspan x="101.791564" y="30.4089887">e</tspan>
                        <tspan x="105.526527" y="30.4089887" letter-spacing="0.03628158">s</tspan>
                        <tspan x="108.155387" y="30.4089887">t</tspan>
                    </text>
                </g>
            </g>
        </g>
    </g>
</svg>